<mxfile host="app.diagrams.net" modified="2024-05-27T12:03:20.716Z" agent="Mozilla/5.0 (Windows NT 10.0; Win64; x64) AppleWebKit/537.36 (KHTML, like Gecko) Chrome/125.0.0.0 Safari/537.36" etag="37QUpBBZv93BYExacBie" version="24.4.9" type="device">
  <diagram name="Page-1" id="WGEbk5jHV8ZMqDqwNynV">
    <mxGraphModel dx="1221" dy="725" grid="1" gridSize="10" guides="1" tooltips="1" connect="1" arrows="1" fold="1" page="1" pageScale="1" pageWidth="850" pageHeight="1100" math="0" shadow="0">
      <root>
        <mxCell id="0" />
        <mxCell id="1" parent="0" />
        <mxCell id="fsum_lClXxgNMGqKTjlu-1" value="rg-&lt;span style=&quot;background-color: initial;&quot;&gt;XXXXXX&lt;/span&gt;" style="rounded=0;whiteSpace=wrap;html=1;" parent="1" vertex="1">
          <mxGeometry x="20" y="20" width="120" height="60" as="geometry" />
        </mxCell>
        <mxCell id="fsum_lClXxgNMGqKTjlu-23" style="edgeStyle=orthogonalEdgeStyle;rounded=0;orthogonalLoop=1;jettySize=auto;html=1;exitX=0.5;exitY=1;exitDx=0;exitDy=0;entryX=0.5;entryY=0;entryDx=0;entryDy=0;" parent="1" source="fsum_lClXxgNMGqKTjlu-2" target="fsum_lClXxgNMGqKTjlu-3" edge="1">
          <mxGeometry relative="1" as="geometry" />
        </mxCell>
        <mxCell id="fsum_lClXxgNMGqKTjlu-2" value="rg-XXXXX" style="rounded=0;whiteSpace=wrap;html=1;" parent="1" vertex="1">
          <mxGeometry x="410" y="180" width="120" height="60" as="geometry" />
        </mxCell>
        <mxCell id="fsum_lClXxgNMGqKTjlu-24" style="edgeStyle=orthogonalEdgeStyle;rounded=0;orthogonalLoop=1;jettySize=auto;html=1;exitX=0.25;exitY=1;exitDx=0;exitDy=0;entryX=0.5;entryY=0;entryDx=0;entryDy=0;" parent="1" source="fsum_lClXxgNMGqKTjlu-3" target="fsum_lClXxgNMGqKTjlu-5" edge="1">
          <mxGeometry relative="1" as="geometry" />
        </mxCell>
        <mxCell id="fsum_lClXxgNMGqKTjlu-25" style="edgeStyle=orthogonalEdgeStyle;rounded=0;orthogonalLoop=1;jettySize=auto;html=1;exitX=0.75;exitY=1;exitDx=0;exitDy=0;entryX=0.5;entryY=0;entryDx=0;entryDy=0;" parent="1" source="fsum_lClXxgNMGqKTjlu-3" target="fsum_lClXxgNMGqKTjlu-8" edge="1">
          <mxGeometry relative="1" as="geometry" />
        </mxCell>
        <mxCell id="fsum_lClXxgNMGqKTjlu-3" value="App service plan XXXXX" style="rounded=0;whiteSpace=wrap;html=1;" parent="1" vertex="1">
          <mxGeometry x="410" y="370" width="120" height="60" as="geometry" />
        </mxCell>
        <mxCell id="fsum_lClXxgNMGqKTjlu-5" value="App service XXXX" style="rounded=0;whiteSpace=wrap;html=1;" parent="1" vertex="1">
          <mxGeometry x="305" y="470" width="120" height="60" as="geometry" />
        </mxCell>
        <mxCell id="fsum_lClXxgNMGqKTjlu-10" value="DefaultResourceGroup-WEU" style="rounded=0;whiteSpace=wrap;html=1;" parent="1" vertex="1">
          <mxGeometry x="190" y="20" width="120" height="60" as="geometry" />
        </mxCell>
        <mxCell id="fsum_lClXxgNMGqKTjlu-11" value="DefaultWorkspace-XXXXX-WEU" style="rounded=0;whiteSpace=wrap;html=1;" parent="1" vertex="1">
          <mxGeometry x="190" y="100" width="120" height="60" as="geometry" />
        </mxCell>
        <mxCell id="fsum_lClXxgNMGqKTjlu-12" style="edgeStyle=orthogonalEdgeStyle;rounded=0;orthogonalLoop=1;jettySize=auto;html=1;exitDx=0;exitDy=0;entryDx=0;entryDy=0;" parent="1" source="fsum_lClXxgNMGqKTjlu-10" target="fsum_lClXxgNMGqKTjlu-11" edge="1">
          <mxGeometry relative="1" as="geometry">
            <Array as="points">
              <mxPoint x="250" y="75" />
              <mxPoint x="250" y="95" />
            </Array>
          </mxGeometry>
        </mxCell>
        <mxCell id="fsum_lClXxgNMGqKTjlu-13" value="rg-XXXXXXXXX" style="rounded=0;whiteSpace=wrap;html=1;" parent="1" vertex="1">
          <mxGeometry x="500" y="20" width="120" height="60" as="geometry" />
        </mxCell>
        <mxCell id="fsum_lClXxgNMGqKTjlu-14" value="rg-XXXXXXXXX" style="rounded=0;whiteSpace=wrap;html=1;" parent="1" vertex="1">
          <mxGeometry x="640" y="20" width="120" height="60" as="geometry" />
        </mxCell>
        <mxCell id="fsum_lClXxgNMGqKTjlu-15" value="rg-XXXXXXX" style="rounded=0;whiteSpace=wrap;html=1;" parent="1" vertex="1">
          <mxGeometry x="20" y="180" width="120" height="60" as="geometry" />
        </mxCell>
        <mxCell id="fsum_lClXxgNMGqKTjlu-16" value="InsightSS-XXXXX-01-Rule01" style="rounded=0;whiteSpace=wrap;html=1;" parent="1" vertex="1">
          <mxGeometry x="20" y="260" width="120" height="60" as="geometry" />
        </mxCell>
        <mxCell id="fsum_lClXxgNMGqKTjlu-17" style="edgeStyle=orthogonalEdgeStyle;rounded=0;orthogonalLoop=1;jettySize=auto;html=1;exitDx=0;exitDy=0;entryDx=0;entryDy=0;" parent="1" source="fsum_lClXxgNMGqKTjlu-15" target="fsum_lClXxgNMGqKTjlu-16" edge="1">
          <mxGeometry relative="1" as="geometry">
            <Array as="points">
              <mxPoint x="80" y="235" />
              <mxPoint x="80" y="255" />
            </Array>
          </mxGeometry>
        </mxCell>
        <mxCell id="fsum_lClXxgNMGqKTjlu-18" value="rg-XXXXX-sf-storage-resources" style="rounded=0;whiteSpace=wrap;html=1;" parent="1" vertex="1">
          <mxGeometry x="190" y="180" width="120" height="60" as="geometry" />
        </mxCell>
        <mxCell id="fsum_lClXxgNMGqKTjlu-19" value="Storage account XXXXX" style="rounded=0;whiteSpace=wrap;html=1;" parent="1" vertex="1">
          <mxGeometry x="190" y="260" width="120" height="60" as="geometry" />
        </mxCell>
        <mxCell id="fsum_lClXxgNMGqKTjlu-20" style="edgeStyle=orthogonalEdgeStyle;rounded=0;orthogonalLoop=1;jettySize=auto;html=1;exitDx=0;exitDy=0;entryDx=0;entryDy=0;" parent="1" source="fsum_lClXxgNMGqKTjlu-18" target="fsum_lClXxgNMGqKTjlu-19" edge="1">
          <mxGeometry relative="1" as="geometry">
            <Array as="points">
              <mxPoint x="250" y="235" />
              <mxPoint x="250" y="255" />
            </Array>
          </mxGeometry>
        </mxCell>
        <mxCell id="fsum_lClXxgNMGqKTjlu-21" value="rg-XXXXXXXX" style="rounded=0;whiteSpace=wrap;html=1;" parent="1" vertex="1">
          <mxGeometry x="350" y="20" width="120" height="60" as="geometry" />
        </mxCell>
        <mxCell id="fsum_lClXxgNMGqKTjlu-8" value="Function app XXXXXX" style="rounded=0;whiteSpace=wrap;html=1;" parent="1" vertex="1">
          <mxGeometry x="510" y="470" width="120" height="60" as="geometry" />
        </mxCell>
      </root>
    </mxGraphModel>
  </diagram>
</mxfile>
